<?xml version="1.0" encoding="UTF-8"?>
<svg version="1.1" xmlns="http://www.w3.org/2000/svg" width="998" height="320">
<path d="M0 0 C1.195194 -0.00581376 2.390388 -0.01162753 3.62180001 -0.01761746 C6.94154309 -0.02970608 10.26038088 -0.02387589 13.58006122 -0.01050565 C17.19063918 -0.00036142 20.80114564 -0.01339743 24.41171348 -0.02347898 C30.74033235 -0.03793288 37.06881477 -0.03748318 43.39743996 -0.02729034 C52.80811631 -0.01217467 62.21867732 -0.01988785 71.62935287 -0.03212357 C88.43515801 -0.0532006 105.24090238 -0.0513555 122.04671332 -0.03980792 C136.75234332 -0.02975277 151.45795103 -0.0271156 166.16358376 -0.0318985 C167.13836509 -0.03220404 168.11314642 -0.03250958 169.11746658 -0.03282438 C173.07422209 -0.03406969 177.03097758 -0.03534329 180.98773306 -0.03666343 C218.1163992 -0.04890367 255.24502659 -0.03779853 292.37368675 -0.01627585 C325.37717095 0.00271004 358.38059341 0.00100605 391.38407707 -0.01811981 C428.44707845 -0.03952632 465.51004559 -0.04803864 502.57305229 -0.03567076 C506.52205268 -0.03438784 510.47105308 -0.03313649 514.42005348 -0.0318985 C515.87861646 -0.03142403 515.87861646 -0.03142403 517.36664536 -0.03093999 C532.06623286 -0.02638542 546.76579564 -0.03171983 561.46537971 -0.04181671 C578.17381999 -0.05323608 594.88218989 -0.0504321 611.59062137 -0.02869374 C620.9478162 -0.01692206 630.30485874 -0.01621994 639.66204972 -0.03127843 C645.9054389 -0.04022001 652.14870548 -0.03471669 658.39207644 -0.01725936 C661.95386905 -0.0077071 665.51535817 -0.0045668 669.07714166 -0.01888329 C672.90748732 -0.03412291 676.7373491 -0.01867728 680.56768799 0 C682.23917277 -0.014047 682.23917277 -0.014047 683.94442493 -0.02837777 C691.36503235 0.04457805 691.36503235 0.04457805 695.33161628 2.33951235 C697.15800285 4.50336456 697.15800285 4.50336456 697.97050285 7.62836456 C696.72390041 13.57369928 693.16881746 17.07002704 689.15800285 21.50336456 C688.71392082 21.99562531 688.26983879 22.48788605 687.81229973 22.99506378 C685.47331588 25.58159831 683.11591484 28.15019238 680.74394035 30.70648956 C676.52846985 35.2658202 672.47439576 39.95432096 668.4509716 44.68305206 C662.62770919 51.51963438 656.71171142 58.23766783 650.6150341 64.83148956 C647.98951246 67.68658782 645.43132445 70.591017 642.89237785 73.52289581 C640.88535747 75.81469612 638.83397434 78.06333208 636.78300285 80.31586456 C633.71053512 83.71420008 630.77357663 87.17926979 627.90800285 90.75336456 C623.2474142 96.51777685 618.22021005 101.8918841 613.1540966 107.29633331 C608.78809992 111.95527776 604.62624453 116.7740726 600.49394035 121.64008331 C594.94168157 128.16586129 589.29898886 134.5629061 583.44608879 140.82074738 C580.40178527 144.09631429 577.51833517 147.4486797 574.72050285 150.94086456 C570.1348799 156.65409971 565.16054743 161.95538393 560.1540966 167.29633331 C555.77683571 171.96729777 551.60657396 176.80083997 547.4587841 181.67523956 C541.6320182 188.51362313 535.71419684 195.23497973 529.6150341 201.83148956 C526.98951246 204.68658782 524.43132445 207.591017 521.89237785 210.52289581 C519.88535747 212.81469612 517.83397434 215.06333208 515.78300285 217.31586456 C512.56582858 220.86679332 509.52111965 224.50805491 506.53300285 228.25336456 C498.25454231 238.47118474 498.25454231 238.47118474 492.15800285 240.50336456 C490.53310549 240.59619306 488.90463792 240.63152956 487.2770921 240.6333164 C486.26250564 240.63684482 485.24791917 240.64037324 484.20258766 240.64400858 C482.5223643 240.64221191 482.5223643 240.64221191 480.80819702 240.64037895 C479.6176184 240.64303078 478.42703977 240.64568261 477.20038301 240.64841479 C473.87524211 240.65478497 470.55015273 240.65664406 467.22500926 240.65663756 C463.61522328 240.65770508 460.00544739 240.6644933 456.39566696 240.67054427 C449.22700932 240.68163057 442.05835659 240.68727115 434.88969189 240.69125314 C426.30700378 240.69625782 417.72432519 240.70698453 409.14164269 240.71773488 C388.39648507 240.74337681 367.65132375 240.75840172 346.90615484 240.77124535 C340.03745629 240.77549847 333.16875801 240.78006415 326.3000598 240.78482866 C289.80006364 240.81008448 253.30006706 240.83213859 216.80006409 240.84455681 C208.34174027 240.84747827 199.88341648 240.85044576 191.4250927 240.85346222 C190.3742259 240.85383313 189.32335909 240.85420404 188.24064784 240.85458619 C154.15034679 240.86674831 120.06009728 240.89770323 85.96982045 240.93938374 C50.94057586 240.98213439 15.9113585 241.00879301 -19.1179129 241.01403152 C-24.06137319 241.01477201 -29.00483344 241.01568271 -33.94829369 241.0166893 C-35.40773567 241.01697522 -35.40773567 241.01697522 -36.89666133 241.01726692 C-52.57903377 241.02078572 -68.2613418 241.04110744 -83.94369056 241.06748594 C-99.69466672 241.09358124 -115.44556817 241.10137892 -131.19656287 241.09038465 C-140.56266925 241.0843914 -149.92852288 241.09240543 -159.29459119 241.12021548 C-165.54404208 241.1374039 -171.79331967 241.13657261 -178.04277407 241.1208478 C-181.60816561 241.11239644 -185.17307318 241.11199155 -188.73842083 241.13345926 C-192.57267861 241.15636167 -196.40621925 241.1408942 -200.24050903 241.12139702 C-201.35597561 241.13424624 -202.47144219 241.14709546 -203.62071079 241.16033405 C-211.0461312 241.07663592 -211.0461312 241.07663592 -215.06367218 238.18275511 C-216.84199715 235.50336456 -216.84199715 235.50336456 -216.89668465 232.01508331 C-215.76593649 228.25011074 -214.53521407 226.26337331 -211.96699715 223.31586456 C-211.1574659 222.37742706 -210.34793465 221.43898956 -209.51387215 220.47211456 C-205.83111783 216.38016533 -202.13534702 212.30244555 -198.3927784 208.26508331 C-194.2021917 203.72795499 -190.16738236 199.06631605 -186.17012215 194.35883331 C-180.6213299 187.83488204 -174.98048552 181.44115258 -169.13008308 175.18598175 C-166.08577956 171.91041483 -163.20232946 168.55804942 -160.40449715 165.06586456 C-155.8188742 159.35262941 -150.84454173 154.05134519 -145.8380909 148.71039581 C-141.47209421 144.05145137 -137.31023882 139.23265653 -133.17793465 134.36664581 C-127.62567587 127.84086783 -121.98298316 121.44382302 -116.13008308 115.18598175 C-113.08577956 111.91041483 -110.20232946 108.55804942 -107.40449715 105.06586456 C-102.8188742 99.35262941 -97.84454173 94.05134519 -92.8380909 88.71039581 C-88.47209421 84.05145137 -84.31023882 79.23265653 -80.17793465 74.36664581 C-74.62567587 67.84086783 -68.98298316 61.44382302 -63.13008308 55.18598175 C-60.08577956 51.91041483 -57.20232946 48.55804942 -54.40449715 45.06586456 C-49.8200323 39.3540723 -44.84701036 34.05406186 -39.84199715 28.71430206 C-35.46314805 24.04155238 -31.25145444 19.25261799 -27.22480965 14.27289581 C-26.51252205 13.40386627 -26.51252205 13.40386627 -25.7858448 12.51728058 C-24.85148002 11.37578826 -23.92601051 10.22693157 -23.01143074 9.06952667 C-22.57395515 8.53722443 -22.13647957 8.00492218 -21.68574715 7.45648956 C-21.30611824 6.98372589 -20.92648933 6.51096222 -20.53535652 6.02387238 C-14.0433816 0.19457309 -8.42631931 -0.07111279 0 0 Z " fill="#DAC8FE" transform="translate(258.84199714660645,39.49663543701172)"/>
<path d="M0 0 C1.6429867 -0.00874829 1.6429867 -0.00874829 3.31916505 -0.01767331 C5.11593353 -0.01200433 5.11593353 -0.01200433 6.94900036 -0.00622082 C8.86416959 -0.01195914 8.86416959 -0.01195914 10.81802911 -0.01781338 C14.36001093 -0.02810738 17.9018917 -0.025908 21.44388187 -0.02163279 C25.2647164 -0.01916807 29.08552645 -0.02817663 32.90635204 -0.03567028 C40.39143031 -0.04842693 47.87647272 -0.05020972 55.36156002 -0.04787002 C61.44594959 -0.04608757 67.53032827 -0.04783492 73.61471653 -0.05209446 C74.48041737 -0.05268965 75.3461182 -0.05328484 76.23805239 -0.05389806 C77.99669988 -0.05510981 79.75534736 -0.05632394 81.51399484 -0.05754044 C98.01142545 -0.06841995 114.50883563 -0.06625169 131.00626739 -0.06015559 C146.09667679 -0.05498754 161.18702161 -0.0662382 176.27741823 -0.08525381 C191.77235131 -0.10462946 207.26725383 -0.1128886 222.7621991 -0.10913056 C231.4613318 -0.10721791 240.16040954 -0.10971216 248.85953236 -0.1238451 C256.26624074 -0.13575648 263.67286037 -0.13716662 271.07956997 -0.12505493 C274.85777565 -0.11916418 278.63581897 -0.11807211 282.41401386 -0.13005733 C286.51206785 -0.14290597 290.60973508 -0.13245619 294.70778942 -0.11974621 C295.89894291 -0.12712049 297.09009639 -0.13449478 298.31734544 -0.14209253 C307.42420383 -0.08260007 313.61427611 1.82623939 321.4055891 6.66853809 C322.49355785 7.33820606 323.5815266 8.00787403 324.7024641 8.69783497 C325.2720686 9.05256886 325.84167309 9.40730274 326.42853832 9.77278614 C329.52618463 11.70105182 332.63840038 13.60556941 335.7493391 15.51228809 C336.71340176 16.10417927 336.71340176 16.10417927 337.69694042 16.70802784 C344.41358231 20.82223741 351.21153208 24.79284491 358.01887035 28.75447559 C367.51363617 34.2878617 376.95031368 39.90542411 386.33137035 45.62947559 C397.7502985 52.59670337 409.23170683 59.45280225 420.74128246 66.26912403 C430.5441415 72.07548753 440.32242243 77.92120855 450.08210278 83.79988575 C451.03834545 84.37529102 451.99458813 84.9506963 452.97980785 85.54353809 C453.81302563 86.04578907 454.6462434 86.54804005 455.5047102 87.06551075 C456.817169 87.84025916 458.15570251 88.57289167 459.51887035 89.25447559 C459.51887035 89.91447559 459.51887035 90.57447559 459.51887035 91.25447559 C457.30109692 92.77229786 457.30109692 92.77229786 454.15949535 94.57088184 C453.59250423 94.89881229 453.02551311 95.22674274 452.44134045 95.56461048 C451.20575618 96.27847605 449.96827209 96.9890608 448.72916698 97.69679737 C445.38040329 99.61039152 442.04615428 101.54900307 438.7102766 103.48494434 C437.67928593 104.08209248 437.67928593 104.08209248 436.62746716 104.69130421 C429.92968622 108.57822073 423.31341312 112.59040825 416.70637035 116.62947559 C406.68781996 122.74660208 396.62105398 128.77651267 386.51887035 134.75447559 C376.37714167 140.75650903 366.2698114 146.80958007 356.20637035 152.94197559 C347.31978303 158.35131316 338.42346318 163.74308741 329.48606396 169.06810474 C327.75857224 170.09834352 326.03357797 171.13276639 324.30866528 172.16731739 C323.25783764 172.79162647 322.20701 173.41593555 321.1243391 174.05916309 C319.7499165 174.87876514 319.7499165 174.87876514 318.34772778 175.71492481 C317.41420483 176.22297657 316.48068188 176.73102833 315.51887035 177.25447559 C314.56671831 177.77337172 313.61456627 178.29226784 312.63356113 178.82688808 C307.25129524 181.08433686 301.59733986 180.66768349 295.85496044 180.63542652 C294.57717767 180.64010649 293.2993949 180.64478647 291.98289144 180.64960825 C288.44730889 180.66210678 284.91196995 180.65595318 281.37638664 180.6466496 C277.55897101 180.63985457 273.74159691 180.65034268 269.92418957 180.65858936 C262.44972473 180.67192482 254.9753503 180.66904958 247.50088193 180.66035144 C241.42464981 180.65357355 235.34844302 180.65265863 229.27220821 180.65592289 C228.40706708 180.65638259 227.54192595 180.65684229 226.65056842 180.65731592 C224.89296973 180.65827511 223.13537105 180.65924775 221.37777238 180.66023369 C204.89841156 180.6687873 188.41910082 180.65895444 171.93974821 180.64283259 C157.80691748 180.62943419 143.67416069 180.63175362 129.54133129 180.64558887 C113.12363829 180.6616534 96.70598919 180.66795833 80.28828943 180.65875208 C78.53658097 180.65779646 76.7848725 180.65685334 75.03316402 180.65592289 C74.17132883 180.65546006 73.30949364 180.65499724 72.42154223 180.65452038 C66.35528671 180.65193276 60.28905909 180.65629669 54.22280788 180.66336155 C46.8260517 180.67178664 39.429391 180.66947541 32.03264572 180.65351932 C28.26038232 180.64564943 24.48827794 180.64252295 20.71601582 180.65246677 C16.6227887 180.66309321 12.52996109 180.6503817 8.43674755 180.63542652 C7.24987115 180.64211869 6.06299474 180.64881085 4.84015238 180.65570581 C-1.91590273 180.60782648 -7.19548471 179.7672654 -13.48112965 177.25447559 C-13.48112965 176.59447559 -13.48112965 175.93447559 -13.48112965 175.25447559 C-15.13112965 174.92447559 -16.78112965 174.59447559 -18.48112965 174.25447559 C-18.48112965 173.59447559 -18.48112965 172.93447559 -18.48112965 172.25447559 C-20.13112965 171.92447559 -21.78112965 171.59447559 -23.48112965 171.25447559 C-23.48112965 170.59447559 -23.48112965 169.93447559 -23.48112965 169.25447559 C-24.18552174 168.99287647 -24.88991383 168.73127735 -25.61565113 168.46175098 C-28.68934352 167.16675151 -31.45278873 165.62725623 -34.3287859 163.93806934 C-34.88870228 163.61013889 -35.44861866 163.28220844 -36.0255022 162.94434071 C-37.86711569 161.86397605 -39.70547254 160.77820911 -41.54362965 159.69197559 C-42.84722236 158.92482314 -44.15085256 158.15773437 -45.45451832 157.39070606 C-55.27090572 151.60457372 -65.0178288 145.7084358 -74.74504566 139.7737627 C-83.6165619 134.36483478 -92.53914594 129.04596291 -101.48112965 123.75447559 C-115.23182481 115.61618176 -128.90253071 107.35282072 -142.54655933 99.03719044 C-146.84713056 96.42464708 -151.16198276 93.83616673 -155.48112965 91.25447559 C-154.16076495 87.2933815 -152.61652279 86.88929874 -149.0240984 84.84041309 C-148.45852222 84.51389759 -147.89294605 84.18738209 -147.31023121 83.85097218 C-146.08102758 83.14236999 -144.84950568 82.43777775 -143.61598682 81.73671436 C-140.27904833 79.83938001 -136.95952449 77.91193 -133.63737965 75.98885059 C-132.95314426 75.59384357 -132.26890888 75.19883656 -131.56393909 74.79185963 C-124.87033468 70.92051303 -118.2651761 66.91379004 -111.66862965 62.87947559 C-101.65036033 56.76189691 -91.5833057 50.73243403 -81.48112965 44.75447559 C-71.33940482 38.75244444 -61.2319136 32.69962497 -51.16862965 26.56697559 C-42.24762201 21.13543648 -33.31354207 15.72765227 -24.33845997 10.3859148 C-23.15589151 9.6816177 -21.97404859 8.97610072 -20.79298878 8.26927662 C-19.16124447 7.2932803 -17.5263288 6.32259204 -15.8912859 5.35213184 C-14.96453053 4.80049366 -14.03777515 4.24885548 -13.08293629 3.68050098 C-8.6196778 1.2342316 -5.11842157 0.00469681 0 0 Z " fill="#005AC8" transform="translate(347.48112964630127,69.7455244064331)"/>
<path d="M0 0 C1.195194 -0.00581376 2.390388 -0.01162753 3.62180001 -0.01761746 C6.94154309 -0.02970608 10.26038088 -0.02387589 13.58006122 -0.01050565 C17.19063918 -0.00036142 20.80114564 -0.01339743 24.41171348 -0.02347898 C30.74033235 -0.03793288 37.06881477 -0.03748318 43.39743996 -0.02729034 C52.80811631 -0.01217467 62.21867732 -0.01988785 71.62935287 -0.03212357 C88.43515801 -0.0532006 105.24090238 -0.0513555 122.04671332 -0.03980792 C136.75234332 -0.02975277 151.45795103 -0.0271156 166.16358376 -0.0318985 C167.13836509 -0.03220404 168.11314642 -0.03250958 169.11746658 -0.03282438 C173.07422209 -0.03406969 177.03097758 -0.03534329 180.98773306 -0.03666343 C218.1163992 -0.04890367 255.24502659 -0.03779853 292.37368675 -0.01627585 C325.37717095 0.00271004 358.38059341 0.00100605 391.38407707 -0.01811981 C428.44707845 -0.03952632 465.51004559 -0.04803864 502.57305229 -0.03567076 C506.52205268 -0.03438784 510.47105308 -0.03313649 514.42005348 -0.0318985 C515.87861646 -0.03142403 515.87861646 -0.03142403 517.36664536 -0.03093999 C532.06623286 -0.02638542 546.76579564 -0.03171983 561.46537971 -0.04181671 C578.17381999 -0.05323608 594.88218989 -0.0504321 611.59062137 -0.02869374 C620.9478162 -0.01692206 630.30485874 -0.01621994 639.66204972 -0.03127843 C645.9054389 -0.04022001 652.14870548 -0.03471669 658.39207644 -0.01725936 C661.95386905 -0.0077071 665.51535817 -0.0045668 669.07714166 -0.01888329 C672.90748732 -0.03412291 676.7373491 -0.01867728 680.56768799 0 C682.23917277 -0.014047 682.23917277 -0.014047 683.94442493 -0.02837777 C691.36503235 0.04457805 691.36503235 0.04457805 695.33161628 2.33951235 C697.15800285 4.50336456 697.15800285 4.50336456 697.97050285 7.62836456 C696.72390041 13.57369928 693.16881746 17.07002704 689.15800285 21.50336456 C688.71392082 21.99562531 688.26983879 22.48788605 687.81229973 22.99506378 C685.47331588 25.58159831 683.11591484 28.15019238 680.74394035 30.70648956 C676.52846985 35.2658202 672.47439576 39.95432096 668.4509716 44.68305206 C662.62770919 51.51963438 656.71171142 58.23766783 650.6150341 64.83148956 C647.98951246 67.68658782 645.43132445 70.591017 642.89237785 73.52289581 C640.88535747 75.81469612 638.83397434 78.06333208 636.78300285 80.31586456 C633.71053512 83.71420008 630.77357663 87.17926979 627.90800285 90.75336456 C623.2474142 96.51777685 618.22021005 101.8918841 613.1540966 107.29633331 C608.78809992 111.95527776 604.62624453 116.7740726 600.49394035 121.64008331 C594.94168157 128.16586129 589.29898886 134.5629061 583.44608879 140.82074738 C580.40178527 144.09631429 577.51833517 147.4486797 574.72050285 150.94086456 C570.1348799 156.65409971 565.16054743 161.95538393 560.1540966 167.29633331 C555.77683571 171.96729777 551.60657396 176.80083997 547.4587841 181.67523956 C541.6320182 188.51362313 535.71419684 195.23497973 529.6150341 201.83148956 C526.98951246 204.68658782 524.43132445 207.591017 521.89237785 210.52289581 C519.88535747 212.81469612 517.83397434 215.06333208 515.78300285 217.31586456 C512.56582858 220.86679332 509.52111965 224.50805491 506.53300285 228.25336456 C498.25454231 238.47118474 498.25454231 238.47118474 492.15800285 240.50336456 C490.53310549 240.59619306 488.90463792 240.63152956 487.2770921 240.6333164 C486.26250564 240.63684482 485.24791917 240.64037324 484.20258766 240.64400858 C482.5223643 240.64221191 482.5223643 240.64221191 480.80819702 240.64037895 C479.6176184 240.64303078 478.42703977 240.64568261 477.20038301 240.64841479 C473.87524211 240.65478497 470.55015273 240.65664406 467.22500926 240.65663756 C463.61522328 240.65770508 460.00544739 240.6644933 456.39566696 240.67054427 C449.22700932 240.68163057 442.05835659 240.68727115 434.88969189 240.69125314 C426.30700378 240.69625782 417.72432519 240.70698453 409.14164269 240.71773488 C388.39648507 240.74337681 367.65132375 240.75840172 346.90615484 240.77124535 C340.03745629 240.77549847 333.16875801 240.78006415 326.3000598 240.78482866 C289.80006364 240.81008448 253.30006706 240.83213859 216.80006409 240.84455681 C208.34174027 240.84747827 199.88341648 240.85044576 191.4250927 240.85346222 C190.3742259 240.85383313 189.32335909 240.85420404 188.24064784 240.85458619 C154.15034679 240.86674831 120.06009728 240.89770323 85.96982045 240.93938374 C50.94057586 240.98213439 15.9113585 241.00879301 -19.1179129 241.01403152 C-24.06137319 241.01477201 -29.00483344 241.01568271 -33.94829369 241.0166893 C-35.40773567 241.01697522 -35.40773567 241.01697522 -36.89666133 241.01726692 C-52.57903377 241.02078572 -68.2613418 241.04110744 -83.94369056 241.06748594 C-99.69466672 241.09358124 -115.44556817 241.10137892 -131.19656287 241.09038465 C-140.56266925 241.0843914 -149.92852288 241.09240543 -159.29459119 241.12021548 C-165.54404208 241.1374039 -171.79331967 241.13657261 -178.04277407 241.1208478 C-181.60816561 241.11239644 -185.17307318 241.11199155 -188.73842083 241.13345926 C-192.57267861 241.15636167 -196.40621925 241.1408942 -200.24050903 241.12139702 C-201.35597561 241.13424624 -202.47144219 241.14709546 -203.62071079 241.16033405 C-211.0461312 241.07663592 -211.0461312 241.07663592 -215.06367218 238.18275511 C-216.84199715 235.50336456 -216.84199715 235.50336456 -216.89668465 232.01508331 C-215.76593649 228.25011074 -214.53521407 226.26337331 -211.96699715 223.31586456 C-211.1574659 222.37742706 -210.34793465 221.43898956 -209.51387215 220.47211456 C-205.83111783 216.38016533 -202.13534702 212.30244555 -198.3927784 208.26508331 C-194.2021917 203.72795499 -190.16738236 199.06631605 -186.17012215 194.35883331 C-180.6213299 187.83488204 -174.98048552 181.44115258 -169.13008308 175.18598175 C-166.08577956 171.91041483 -163.20232946 168.55804942 -160.40449715 165.06586456 C-155.8188742 159.35262941 -150.84454173 154.05134519 -145.8380909 148.71039581 C-141.47209421 144.05145137 -137.31023882 139.23265653 -133.17793465 134.36664581 C-127.62567587 127.84086783 -121.98298316 121.44382302 -116.13008308 115.18598175 C-113.08577956 111.91041483 -110.20232946 108.55804942 -107.40449715 105.06586456 C-102.8188742 99.35262941 -97.84454173 94.05134519 -92.8380909 88.71039581 C-88.47209421 84.05145137 -84.31023882 79.23265653 -80.17793465 74.36664581 C-74.62567587 67.84086783 -68.98298316 61.44382302 -63.13008308 55.18598175 C-60.08577956 51.91041483 -57.20232946 48.55804942 -54.40449715 45.06586456 C-49.8200323 39.3540723 -44.84701036 34.05406186 -39.84199715 28.71430206 C-35.46314805 24.04155238 -31.25145444 19.25261799 -27.22480965 14.27289581 C-26.51252205 13.40386627 -26.51252205 13.40386627 -25.7858448 12.51728058 C-24.85148002 11.37578826 -23.92601051 10.22693157 -23.01143074 9.06952667 C-22.57395515 8.53722443 -22.13647957 8.00492218 -21.68574715 7.45648956 C-21.30611824 6.98372589 -20.92648933 6.51096222 -20.53535652 6.02387238 C-14.0433816 0.19457309 -8.42631931 -0.07111279 0 0 Z M-17.84199715 21.50336456 C-18.94301951 22.73534852 -20.046582 23.96507554 -21.15449715 25.19086456 C-22.38842848 26.62427672 -23.61684961 28.06243762 -24.84199715 29.50336456 C-31.56554601 37.41058315 -38.35334823 45.22268693 -45.39668465 52.84711456 C-49.54588379 57.35423185 -53.54900518 61.97856188 -57.51387215 66.64789581 C-63.06266439 73.17184709 -68.70350878 79.56557655 -74.55391121 85.82074738 C-77.59821473 89.09631429 -80.48166483 92.4486797 -83.27949715 95.94086456 C-87.8651201 101.65409971 -92.83945257 106.95538393 -97.8459034 112.29633331 C-102.21190008 116.95527776 -106.37375547 121.7740726 -110.50605965 126.64008331 C-116.05831843 133.16586129 -121.70101114 139.5629061 -127.55391121 145.82074738 C-130.59821473 149.09631429 -133.48166483 152.4486797 -136.27949715 155.94086456 C-140.8651201 161.65409971 -145.83945257 166.95538393 -150.8459034 172.29633331 C-155.21190008 176.95527776 -159.37375547 181.7740726 -163.50605965 186.64008331 C-168.57406795 192.59670354 -173.68681168 198.47812296 -179.02949715 204.19086456 C-183.45959084 208.93058461 -187.65596344 213.80005181 -191.70918465 218.87055206 C-193.43462111 221.00048645 -195.18900065 223.08953062 -196.97529793 225.16791534 C-197.51292763 225.79384583 -198.05055733 226.41977631 -198.60447884 227.06467438 C-199.01285988 227.53944214 -199.42124092 228.0142099 -199.84199715 228.50336456 C-134.20074676 228.69187759 -68.55946431 228.86677484 -2.91801643 228.9691391 C-1.9466781 228.97065773 -0.97533977 228.97217635 0.02543306 228.973741 C21.13465739 229.00666212 42.24388458 229.03713424 63.35311606 229.06508319 C73.70490839 229.07880403 84.05669994 229.0930661 94.40849113 229.10761261 C95.95369194 229.10977013 95.95369194 229.10977013 97.53010892 229.11197125 C130.92656914 229.1588556 164.32282479 229.24148692 197.71916105 229.34263399 C232.03501446 229.44637735 266.35075464 229.51410086 300.66676222 229.53642945 C305.51239034 229.53959921 310.35801807 229.54318122 315.20364571 229.54701424 C316.15734531 229.54775589 317.11104491 229.54849754 318.0936445 229.54926167 C333.4526771 229.56226637 348.81135981 229.61330014 364.17024967 229.67851694 C379.60695353 229.74325397 395.04331014 229.76801826 410.48014502 229.75187971 C419.65451386 229.74350588 428.82761288 229.76587976 438.00175267 229.83213754 C444.12981809 229.87337632 450.25705174 229.87467441 456.3851745 229.84351451 C459.87778304 229.82689858 463.36799058 229.82762987 466.86034183 229.87707957 C482.20748493 230.8876782 482.20748493 230.8876782 495.41479371 224.66202362 C497.26940337 222.42232746 498.72263043 220.0270419 500.15800285 217.50336456 C501.25117619 216.20505242 502.37014508 214.927151 503.53300285 213.69086456 C505.66143657 211.24766248 507.76925359 208.78765934 509.86894035 206.31977081 C515.69044949 199.484088 521.60553706 192.76771719 527.7009716 186.17523956 C530.32649325 183.3201413 532.88468126 180.41571212 535.42362785 177.48383331 C537.43064824 175.19203301 539.48203137 172.94339704 541.53300285 170.69086456 C544.60547059 167.29252904 547.54242907 163.82745933 550.40800285 160.25336456 C555.06859151 154.48895228 560.09579566 149.11484503 565.1619091 143.71039581 C569.52790579 139.05145137 573.68976118 134.23265653 577.82206535 129.36664581 C583.37432413 122.84086783 589.01701684 116.44382302 594.86991692 110.18598175 C597.91422044 106.91041483 600.79767054 103.55804942 603.59550285 100.06586456 C608.1811258 94.35262941 613.15545827 89.05134519 618.1619091 83.71039581 C622.52790579 79.05145137 626.68976118 74.23265653 630.82206535 69.36664581 C636.37432413 62.84086783 642.01701684 56.44382302 647.86991692 50.18598175 C650.91422044 46.91041483 653.79767054 43.55804942 656.59550285 40.06586456 C660.64453058 35.01196864 664.98824628 30.297069 669.46635246 25.62470245 C672.29795672 22.63892578 674.90020902 19.59504906 677.35258293 16.28730011 C677.88136543 15.57599442 678.41014793 14.86468872 678.95495415 14.13182831 C679.35196022 13.59443527 679.74896629 13.05704224 680.15800285 12.50336456 C614.59794976 12.34913358 549.03787518 12.20603488 483.47768974 12.12227631 C482.50762309 12.12103379 481.53755644 12.11979128 480.53809382 12.11851111 C459.45673365 12.09157593 438.37537156 12.06664416 417.29400659 12.0437766 C406.95594698 12.03255041 396.61788788 12.02088145 386.27982903 12.0089798 C385.25105924 12.00780297 384.22228946 12.00662613 383.16234483 12.00541364 C349.80743277 11.96705067 316.45265778 11.89944089 283.09782879 11.81668958 C248.82591654 11.73181732 214.55408017 11.6764005 180.2820646 11.65812965 C175.44314312 11.6555362 170.6042219 11.65260547 165.76530075 11.64946938 C164.81291688 11.64886257 163.860533 11.64825576 162.87928901 11.64763057 C147.53870978 11.63698853 132.19836494 11.59522853 116.85788135 11.54187626 C101.44138228 11.48892207 86.02511595 11.46864485 70.6085291 11.48185217 C61.44522381 11.48870572 52.28276931 11.47037612 43.11961741 11.41618668 C37.00017811 11.38246481 30.88129659 11.38137116 24.76181894 11.40687824 C21.27356067 11.42048167 17.78691218 11.41983266 14.29882587 11.37941592 C10.53972994 11.34342071 6.7848299 11.36267445 3.02580166 11.3959341 C1.40317533 11.36046942 1.40317533 11.36046942 -0.25223133 11.32428828 C-8.84824413 11.49679395 -12.53296092 15.01950715 -17.84199715 21.50336456 Z " fill="#5300F9" transform="translate(258.84199714660645,39.49663543701172)"/>
<path d="M0 0 C1.93549672 -0.00807831 1.93549672 -0.00807831 3.91009438 -0.01631981 C7.47149413 -0.03071897 11.03266136 -0.02654716 14.59407353 -0.019153 C18.4428543 -0.01440984 22.29158559 -0.02694133 26.14035034 -0.03717041 C33.67269117 -0.05434149 41.20494852 -0.05520191 48.73730384 -0.04995751 C54.86162226 -0.0459113 60.98591606 -0.04736471 67.11023331 -0.05270576 C68.41916149 -0.0538284 68.41916149 -0.0538284 69.75453267 -0.05497371 C71.52742783 -0.05650523 73.30032298 -0.05804358 75.07321812 -0.05958868 C91.68855952 -0.07330768 108.3038538 -0.06788032 124.91919412 -0.05640347 C140.10757478 -0.04647244 155.29583359 -0.05941056 170.48419546 -0.08333766 C186.09340746 -0.10774178 201.70256275 -0.11733325 217.31179345 -0.11068493 C226.06966262 -0.10719554 234.8274381 -0.10940625 243.58529282 -0.12693596 C251.04088457 -0.14167439 258.49631668 -0.14227201 265.95190535 -0.12486505 C269.75283077 -0.116366 273.55347118 -0.11417838 277.35438156 -0.1295166 C281.48192694 -0.14596617 285.6087878 -0.13118624 289.73632812 -0.11352539 C291.52336712 -0.1279329 291.52336712 -0.1279329 293.34650791 -0.14263147 C304.50508505 -0.04459808 313.21948778 3.49003147 322.62014771 9.26268005 C323.30592896 9.67131287 323.99171021 10.07994568 324.69827271 10.5009613 C328.23209714 12.62522655 331.68310427 14.83937951 335.09280396 17.1572113 C340.82968121 21.01132961 346.79248344 24.48298221 352.74636841 27.98680115 C356.31857714 30.08959369 359.88554518 32.20123043 363.45217896 34.3134613 C364.17559479 34.74180267 364.89901062 35.17014404 365.64434814 35.61146545 C372.4593691 39.65235734 379.23126737 43.76193289 385.99514771 47.88768005 C395.95294624 53.96003046 405.95888001 59.94597577 415.99514771 65.88768005 C425.99946247 71.81472399 435.99596816 77.75427462 445.94949341 83.76634216 C447.17676469 84.50696192 448.40493936 85.24608699 449.63406372 85.98362732 C451.32601158 86.99944975 453.01419009 88.02154248 454.70217896 89.04393005 C455.65584351 89.61949646 456.60950806 90.19506287 457.59207153 90.78807068 C461.23292241 93.21160567 462.72400926 94.42965753 463.93264771 98.70018005 C464.01111305 103.32963534 462.813118 104.77998446 459.99514771 108.38768005 C457.47854614 110.3278656 457.47854614 110.3278656 454.60452271 112.0243988 C453.51913208 112.6740863 452.43374146 113.3237738 451.31546021 113.9931488 C450.12547447 114.68736227 448.93536659 115.3813664 447.74514771 116.07518005 C446.4970274 116.81614857 445.24964694 117.55836456 444.00296021 118.30174255 C440.68565956 120.27573461 437.35933272 122.23399775 434.03103638 124.18937683 C430.68526302 126.15866477 427.34805948 128.14233637 424.01077271 130.1259613 C422.67778582 130.91807009 421.34477797 131.7101436 420.01174927 132.50218201 C419.0198761 133.09152023 419.0198761 133.09152023 418.00796509 133.69276428 C415.98081021 134.89619156 413.95249428 136.09763951 411.92385864 137.29856873 C403.24581295 142.43816156 394.6065062 147.63721176 385.99514771 152.88768005 C375.37018494 159.36587164 364.6915082 165.74839523 353.978302 172.07957458 C346.62900986 176.42286599 339.29978115 180.79317194 332.02639771 185.26268005 C331.38661987 185.65499817 330.74684204 186.04731628 330.087677 186.45152283 C327.06177382 188.30766605 324.04033017 190.17036542 321.02639771 192.04588318 C319.41764771 193.03491638 319.41764771 193.03491638 317.77639771 194.04393005 C316.84891724 194.61949646 315.92143677 195.19506287 314.96585083 195.78807068 C306.78790674 200.19157904 300.30452558 200.8214556 291.11054993 200.77536011 C289.82107321 200.78074565 288.53159649 200.78613118 287.20304471 200.79167992 C283.63938581 200.80609722 280.0759589 200.80190153 276.5122875 200.79451311 C272.66280741 200.78977442 268.81337702 200.80229756 264.96391296 200.81253052 C257.42809294 200.82971088 249.89235633 200.83056002 242.35652181 200.82531761 C236.22931906 200.8212728 230.10214092 200.82272317 223.97493935 200.82806587 C223.10218507 200.82881429 222.22943079 200.82956272 221.33022941 200.83033382 C219.55709272 200.83186533 217.78395603 200.83340368 216.01081935 200.83494879 C199.38880588 200.84867138 182.7668395 200.84323811 166.14482711 200.83176357 C150.94991635 200.82183424 135.75512742 200.8347671 120.56023546 200.85869776 C104.94653507 200.88310212 89.33289138 200.89269318 73.7191723 200.88604504 C64.95793479 200.88255543 56.19679092 200.88476768 47.43556786 200.90229607 C39.97629211 200.91703487 32.51717593 200.91763174 25.05790325 200.90022516 C21.25495958 200.89172602 17.45230075 200.88953864 13.6493721 200.90487671 C9.51958381 200.92132627 5.39047966 200.90654631 1.26069641 200.8888855 C0.06865496 200.8984905 -1.12338648 200.90809551 -2.3515504 200.91799158 C-12.82991445 200.82598498 -21.19995813 197.80721692 -30.09469604 192.4384613 C-30.71284683 192.06887802 -31.33099762 191.69929474 -31.96788025 191.31851196 C-33.96495313 190.12140811 -35.95359524 188.91103897 -37.94235229 187.70018005 C-39.3604862 186.84650779 -40.77911506 185.99365727 -42.19821167 185.1415863 C-46.47481612 182.56961325 -50.74054388 179.97997141 -55.00485229 177.38768005 C-56.23800522 176.63933403 -57.47123714 175.89111817 -58.70455933 175.14305115 C-63.27951949 172.36742881 -67.85332373 169.58992685 -72.4225769 166.80491638 C-81.24393168 161.43209895 -90.11640732 156.14861996 -99.00485229 150.88768005 C-110.33730947 144.1795809 -121.62798264 137.4081595 -132.86837769 130.54685974 C-138.60099576 127.05050412 -144.34716874 123.58160926 -150.12985229 120.16893005 C-151.28689427 119.48380927 -152.44387767 118.79858954 -153.60079956 118.11326599 C-155.76425107 116.83419464 -157.93119932 115.56101179 -160.1022644 114.29490662 C-172.15654218 107.15535104 -172.15654218 107.15535104 -173.70407104 102.10643005 C-173.70020386 101.37424255 -173.69633667 100.64205505 -173.69235229 99.88768005 C-173.71684448 99.15549255 -173.74133667 98.42330505 -173.76657104 97.66893005 C-171.45673864 90.75127813 -161.72320847 87.14092295 -155.76251221 83.71903992 C-152.49597796 81.84281203 -149.24099052 79.94674106 -145.98532104 78.05174255 C-145.31654434 77.66291901 -144.64776764 77.27409546 -143.95872498 76.87348938 C-137.31780986 73.00423589 -130.75114654 69.01941795 -124.19235229 65.01268005 C-114.17331754 58.89631991 -104.10680791 52.86606416 -94.00485229 46.88768005 C-83.88892756 40.89887552 -73.79988524 34.86969335 -63.75485229 28.76268005 C-62.6290979 28.0793158 -61.50334351 27.39595154 -60.34347534 26.69187927 C-54.97880145 23.43084068 -49.62328634 20.15661523 -44.28643799 16.85029602 C-41.74510716 15.27735857 -39.19960069 13.71125328 -36.65365601 12.14579773 C-35.44898135 11.40243586 -34.24634597 10.65575683 -33.04598999 9.90544128 C-31.37730794 8.86252981 -29.70095022 7.83193104 -28.02438354 6.80174255 C-27.07668091 6.21344666 -26.12897827 5.62515076 -25.15255737 5.01902771 C-16.7771809 0.67835714 -9.37179205 -0.04710145 0 0 Z M-26.00485229 17.38768005 C-28.12087813 18.64326957 -30.24268717 19.88920154 -32.37203979 21.12205505 C-34.54442664 22.45553364 -36.71358268 23.7942867 -38.87985229 25.13768005 C-41.33363759 26.64606609 -43.79027697 28.14977475 -46.24703979 29.65330505 C-46.87793518 30.0400238 -47.50883057 30.42674255 -48.15884399 30.82518005 C-55.39644814 35.25417194 -62.70078302 39.56954551 -70.00485229 43.88768005 C-81.18385476 50.50212145 -92.31043336 57.19567782 -103.40036011 63.95823669 C-111.78247266 69.06359511 -120.21157791 74.08639076 -128.65817261 79.08424377 C-142.37820028 87.18958472 -142.37820028 87.18958472 -156.00485229 95.45018005 C-156.96536499 96.03110413 -156.96536499 96.03110413 -157.94528198 96.62376404 C-159.33489728 97.489152 -160.67761616 98.42936318 -162.00485229 99.38768005 C-162.00485229 100.04768005 -162.00485229 100.70768005 -162.00485229 101.38768005 C-160.02552218 102.73843912 -158.06264241 103.94956912 -155.98922729 105.1415863 C-155.35551208 105.51399948 -154.72179687 105.88641266 -154.06887817 106.27011108 C-152.69198513 107.07828427 -151.31312906 107.88311998 -149.93258667 108.68504333 C-146.23471722 110.83328992 -142.55076508 113.00522288 -138.86422729 115.1728363 C-138.11298584 115.61354462 -137.36174438 116.05425293 -136.58773804 116.50831604 C-129.68233184 120.56323914 -122.83834775 124.7128135 -116.00485229 128.88768005 C-106.04671591 134.95952344 -96.04182476 140.9471085 -86.00485229 146.88768005 C-73.27641521 154.42134323 -60.6115423 162.05376147 -47.98141479 169.7509613 C-46.47176147 170.66869324 -46.47176147 170.66869324 -44.93161011 171.60496521 C-42.97448169 172.79706996 -41.02071078 173.99470378 -39.07028198 175.19773865 C-38.16954956 175.748974 -37.26881714 176.30020935 -36.34078979 176.8681488 C-35.54978882 177.35565613 -34.75878784 177.84316345 -33.94381714 178.34544373 C-32.07813472 179.54549944 -32.07813472 179.54549944 -30.00485229 179.38768005 C-30.00485229 180.04768005 -30.00485229 180.70768005 -30.00485229 181.38768005 C-28.35485229 181.71768005 -26.70485229 182.04768005 -25.00485229 182.38768005 C-25.00485229 183.04768005 -25.00485229 183.70768005 -25.00485229 184.38768005 C-23.35485229 184.71768005 -21.70485229 185.04768005 -20.00485229 185.38768005 C-20.00485229 186.04768005 -20.00485229 186.70768005 -20.00485229 187.38768005 C-12.55253993 190.35957411 -6.12536869 190.82444901 1.85246277 190.80227661 C3.12701543 190.81048441 4.40156809 190.81869221 5.71474355 190.82714874 C9.23225679 190.84926934 12.74957562 190.85285007 16.26714933 190.85314929 C20.0690127 190.8566642 23.87079116 190.87729541 27.67260742 190.89547729 C35.97659795 190.93182008 44.28053542 190.94584437 52.58459401 190.9553144 C57.7760698 190.96134648 62.96752898 190.97211131 68.15899467 190.98381996 C82.55123344 191.01556705 96.94345747 191.04227534 111.33573246 191.04857159 C112.2557537 191.04897872 113.17577494 191.04938586 114.12367561 191.04980533 C115.98853775 191.050613 117.85339989 191.05141872 119.71826202 191.05222251 C120.64389944 191.05262809 121.56953685 191.05303367 122.52322388 191.05345154 C123.44999982 191.05385352 124.37677576 191.0542555 125.33163583 191.05466966 C140.33892542 191.06215471 155.34585553 191.10661438 170.35301525 191.16730895 C185.78484418 191.22921656 201.21649429 191.26093343 216.64844984 191.26239902 C225.3032303 191.26389636 233.95756751 191.27798122 242.6122303 191.32521629 C249.98362069 191.36528119 257.35441557 191.37744004 264.72588909 191.35423066 C268.48119369 191.34321163 272.23531598 191.34467628 275.99048042 191.38169861 C291.72589705 191.5277621 304.6738838 191.45360541 317.99514771 182.38768005 C319.15269617 181.69288263 320.31601109 181.00759786 321.48501682 180.33225536 C324.69661044 178.47530004 327.84510105 176.53453921 330.99514771 174.57518005 C333.43056289 173.0756833 335.86913084 171.58134478 338.30764771 170.0868988 C339.24471558 169.51145828 339.24471558 169.51145828 340.20071411 168.9243927 C347.41839215 164.49941681 354.70724225 160.19559752 361.99514771 155.88768005 C372.03300647 149.94868381 382.03691346 143.95923951 391.99514771 137.88768005 C404.15232955 130.47738833 416.37975214 123.18966515 428.63305664 115.93955994 C430.4926718 114.83821366 432.35061979 113.73409258 434.20852661 112.62986755 C436.89009076 111.03734447 439.58164762 109.46307174 442.27786255 107.89549255 C443.66676758 107.08050834 445.05560427 106.26540766 446.44436646 105.45018005 C447.42963066 104.88351624 447.42963066 104.88351624 448.43479919 104.30540466 C449.9889214 103.38814831 451.49767863 102.39477558 452.99514771 101.38768005 C452.99514771 100.72768005 452.99514771 100.06768005 452.99514771 99.38768005 C452.16499146 98.93521912 451.33483521 98.48275818 450.47952271 98.0165863 C440.90095022 92.73712144 431.54194866 87.11970282 422.20791626 81.42164612 C412.51260171 75.50428355 402.77093532 69.67105911 392.99514771 63.88768005 C382.95787119 57.94767468 372.95352015 51.95904956 362.99514771 45.88768005 C352.70036913 39.61374277 342.36340126 33.4144623 331.99514771 27.26268005 C330.99402954 26.66846252 330.99402954 26.66846252 329.97268677 26.0622406 C326.23314032 23.84344922 322.48999677 21.63088565 318.74417114 19.42271423 C317.00376659 18.39278052 315.26862548 17.35441919 313.53421021 16.31443787 C312.46944458 15.68118591 311.40467896 15.04793396 310.30764771 14.39549255 C308.90965942 13.55848816 308.90965942 13.55848816 307.48342896 12.70457458 C303.49984699 10.59630917 300.13320984 10.26132196 295.65382576 10.24507904 C294.56419253 10.2387711 293.47455931 10.23246316 292.3519069 10.22596407 C291.15524112 10.22410207 289.95857535 10.22224008 288.72564697 10.22032166 C287.45395531 10.21452827 286.18226364 10.20873488 284.87203586 10.20276594 C281.33941513 10.18692538 277.80680133 10.17740273 274.27415609 10.1690011 C271.24458423 10.16099231 268.21503106 10.14930265 265.18547161 10.1375863 C254.33299218 10.0956918 243.48049076 10.06846765 232.62796021 10.04393005 C231.77105534 10.04195515 230.91415047 10.03998025 230.03127879 10.03794551 C213.00806385 9.99877022 195.9848415 9.96508008 178.96159554 9.94286346 C175.21919875 9.93789435 171.47680208 9.93285001 167.73440552 9.92771912 C166.80427745 9.92644844 165.87414937 9.92517777 164.9158356 9.9238686 C149.86166482 9.90252655 134.80771289 9.8535489 119.75365211 9.79347497 C104.28811045 9.73226954 88.82268148 9.69766336 73.35702026 9.68839025 C64.67766023 9.68248923 55.99867067 9.66483302 47.3194313 9.61700439 C39.92450274 9.57629031 32.53000516 9.55956861 25.13496955 9.57365721 C21.36585807 9.58009998 17.59766335 9.57546609 13.8286953 9.53978348 C-7.23094441 9.01824165 -7.23094441 9.01824165 -26.00485229 17.38768005 Z " fill="#A5CDFD" transform="translate(354.0048522949219,59.61231994628906)"/>
<path d="M0 0 C10.41513338 -0.06817102 20.83011504 -0.12304191 31.24542236 -0.15543652 C36.08329657 -0.17099566 40.92100831 -0.19205238 45.75878906 -0.22631836 C50.4402218 -0.25926391 55.1214997 -0.27692602 59.80303955 -0.28463173 C61.57613558 -0.29011284 63.34922455 -0.30081293 65.12225342 -0.31719017 C84.43394488 -0.48823827 102.9542789 1.15440134 117.671875 15.18359375 C124.19807018 23.07853792 129.33873577 33.70727848 130 44 C130.04092773 44.63099609 130.08185547 45.26199219 130.12402344 45.91210938 C130.96679917 61.13779327 129.14043901 75.34400752 120 88 C119.4225 88.886875 118.845 89.77375 118.25 90.6875 C108.56553367 100.64097929 94.84135859 105.70027072 81.05154419 106.12025452 C79.53973495 106.12312718 78.02790891 106.12055466 76.51611328 106.11352539 C75.2712188 106.11374443 75.2712188 106.11374443 74.00117493 106.1139679 C71.27419365 106.11327453 68.54728176 106.10550923 65.8203125 106.09765625 C63.92316729 106.09579002 62.0260216 106.09436709 60.12887573 106.09336853 C55.14765074 106.08955948 50.16645513 106.07974301 45.1852417 106.06866455 C40.09745684 106.05841572 35.00966722 106.05386348 29.921875 106.04882812 C19.94790171 106.03811925 9.9739579 106.02053555 0 106 C0 97.09 0 88.18 0 79 C4.95 78.01 4.95 78.01 10 77 C10.66476108 73.67619458 11.12899293 71.18163777 11.17700195 67.91577148 C11.18983719 67.14825058 11.20267242 66.38072968 11.21589661 65.58995056 C11.22328354 64.77522781 11.23067047 63.96050507 11.23828125 63.12109375 C11.246353 62.27200943 11.25442474 61.42292511 11.26274109 60.54811096 C11.27652898 58.75873833 11.28727465 56.96933999 11.29516602 55.17993164 C11.30673382 53.34977517 11.32726057 51.51965367 11.35668945 49.68969727 C11.39925118 47.04159693 11.41551364 44.39449307 11.42578125 41.74609375 C11.45204338 40.52097328 11.45204338 40.52097328 11.47883606 39.27110291 C11.46558392 35.80869185 11.29764274 33.46528113 9.41088867 30.51586914 C6.4721849 28.43981978 6.4721849 28.43981978 0 28 C0 18.76 0 9.52 0 0 Z " fill="#FDFDFE" transform="translate(334,97)"/>
<path d="M0 0 C20.13 0 40.26 0 61 0 C61 3.96 61 7.92 61 12 C45.16 12 29.32 12 13 12 C13 23.22 13 34.44 13 46 C27.52 46 42.04 46 57 46 C57 49.96 57 53.92 57 58 C42.48 58 27.96 58 13 58 C13 72.19 13 86.38 13 101 C8.71 101 4.42 101 0 101 C0 67.67 0 34.34 0 0 Z " fill="#FDFEFE" transform="translate(479,102)"/>
<path d="M0 0 C14.96551724 0 14.96551724 0 19 3 C25.17234817 9.17234817 26.32094615 15.90593864 26.4375 24.3125 C26.38437905 32.89386315 24.95670958 40.08435758 19.6875 47.0625 C13.26248536 51.6944873 8.04539865 51 0 51 C0 34.17 0 17.34 0 0 Z " fill="#015BC8" transform="translate(389,125)"/>
<path d="M0 0 C3.74899266 2.92421427 5.34331909 5.01893134 7.125 9.4375 C7.125 12.7375 7.125 16.0375 7.125 19.4375 C-1.455 19.4375 -10.035 19.4375 -18.875 19.4375 C-15.875 27.4375 -15.875 27.4375 -10.875 29.4375 C-8.09622728 29.59750611 -5.53829011 29.24609976 -2.875 28.4375 C-0.84163749 26.53961697 -0.84163749 26.53961697 0.125 24.4375 C2.435 25.0975 4.745 25.7575 7.125 26.4375 C5.6679705 30.44433112 4.19859548 32.76427382 0.5 34.8125 C-5.17192209 37.30439224 -10.31007619 37.32535824 -16.125 35.3125 C-20.3046989 32.4627053 -23.24364324 29.33157029 -24.875 24.4375 C-25.88855173 10.28100701 -25.88855173 10.28100701 -23.3125 5.25 C-17.18101564 -1.82478964 -8.69732109 -4.31133299 0 0 Z " fill="#F6F9FD" transform="translate(691.875,167.5625)"/>
<path d="M0 0 C3.74899266 2.92421427 5.34331909 5.01893134 7.125 9.4375 C7.125 12.7375 7.125 16.0375 7.125 19.4375 C-1.455 19.4375 -10.035 19.4375 -18.875 19.4375 C-15.875 27.4375 -15.875 27.4375 -10.875 29.4375 C-8.09622728 29.59750611 -5.53829011 29.24609976 -2.875 28.4375 C-0.84163749 26.53961697 -0.84163749 26.53961697 0.125 24.4375 C2.435 25.0975 4.745 25.7575 7.125 26.4375 C5.6679705 30.44433112 4.19859548 32.76427382 0.5 34.8125 C-5.17192209 37.30439224 -10.31007619 37.32535824 -16.125 35.3125 C-20.3046989 32.4627053 -23.24364324 29.33157029 -24.875 24.4375 C-25.88855173 10.28100701 -25.88855173 10.28100701 -23.3125 5.25 C-17.18101564 -1.82478964 -8.69732109 -4.31133299 0 0 Z " fill="#F6F9FD" transform="translate(576.875,167.5625)"/>
<path d="M0 0 C1.98 0 3.96 0 6 0 C6.33 1.32 6.66 2.64 7 4 C7.639375 3.34 8.27875 2.68 8.9375 2 C13.04818198 -0.68452701 16.21555107 -0.71331784 21 0 C25.268861 1.76322519 26.98342141 3.90465759 29 8 C29.34057617 11.22973633 29.34057617 11.22973633 29.29296875 14.83203125 C29.28330078 16.12431641 29.27363281 17.41660156 29.26367188 18.74804688 C29.23860985 20.1028707 29.21321506 21.45768841 29.1875 22.8125 C29.17244013 24.18683445 29.15875401 25.56118468 29.14648438 26.93554688 C29.11116628 30.29076632 29.06183851 33.64518166 29 37 C27.02 37 25.04 37 23 37 C22.98018066 36.26362305 22.96036133 35.52724609 22.93994141 34.76855469 C22.84462172 31.42867944 22.73497004 28.08942361 22.625 24.75 C22.5940625 23.59113281 22.563125 22.43226563 22.53125 21.23828125 C22.49257813 20.12324219 22.45390625 19.00820312 22.4140625 17.859375 C22.3826416 16.83295898 22.3512207 15.80654297 22.31884766 14.74902344 C21.99996849 11.99972833 21.49715185 10.31057553 20 8 C17.11138291 6.55569145 15.20352299 6.62311494 12 7 C9.44980889 8.65875263 8.43420394 9.41119382 7 12 C6.23535364 16.26508629 6.20930696 20.48745361 6.1875 24.8125 C6.16236328 25.98232422 6.13722656 27.15214844 6.11132812 28.35742188 C6.05252818 31.2386193 6.01619468 34.11829983 6 37 C4.02 37 2.04 37 0 37 C0 24.79 0 12.58 0 0 Z " fill="#FCFDFE" transform="translate(592,166)"/>
<path d="M0 0 C3.15719177 1.17571186 5.60242416 2.62695179 8 5 C9.5 8.3125 9.5 8.3125 10 11 C6.8125 11.8125 6.8125 11.8125 3 12 C1.31237149 10.3545622 -0.3540349 8.68711423 -2 7 C-5.82264001 6.60455448 -8.36217368 6.78739123 -12 8 C-14.45433342 13.03784229 -14.74795136 18.50611919 -14 24 C-12.67368859 27.10932439 -11.09823843 29.45088079 -8 31 C-5.0842309 31.41702122 -5.0842309 31.41702122 -2 31 C0.30275556 29.1329009 1.67823871 27.64352259 3 25 C5.9375 25.375 5.9375 25.375 9 26 C9.33 26.66 9.66 27.32 10 28 C8.07851325 32.05647202 5.65400701 34.44219509 2 37 C-2.78207174 38.59402391 -7.43559362 38.96277713 -12.2265625 37.1640625 C-16.57311069 34.7384607 -19.42424545 31.97800962 -21.375 27.37109375 C-23.03702087 21.06580208 -23.04680463 14.4819889 -20.3125 8.5 C-15.5190747 0.2948841 -8.89086562 -1.05302312 0 0 Z " fill="#F5F8FC" transform="translate(651,166)"/>
<path d="M0 0 C2.8125 1.6875 2.8125 1.6875 5 4 C5.33 5.65 5.66 7.3 6 9 C-0.27 9 -6.54 9 -13 9 C-10.38161469 2.45403673 -7.43888429 -1.23981405 0 0 Z " fill="#035CC8" transform="translate(686,172)"/>
<path d="M0 0 C2.8125 1.6875 2.8125 1.6875 5 4 C5.33 5.65 5.66 7.3 6 9 C-0.27 9 -6.54 9 -13 9 C-10.38161469 2.45403673 -7.43888429 -1.23981405 0 0 Z " fill="#035CC8" transform="translate(571,172)"/>
<path d="M0 0 C1.65 0 3.3 0 5 0 C5.33 1.32 5.66 2.64 6 4 C4.35 4.33 2.7 4.66 1 5 C0.67 3.35 0.34 1.7 0 0 Z " fill="#6318F9" transform="translate(255,232)"/>
</svg>
