<?xml version="1.0" encoding="UTF-8"?>
<svg version="1.1" xmlns="http://www.w3.org/2000/svg" width="628" height="576">
<path d="M0 0 C0.80257829 -0.00706559 1.60515657 -0.01413118 2.43205541 -0.02141088 C3.30802061 -0.0189958 4.1839858 -0.01658071 5.0864954 -0.01409245 C6.02151876 -0.01932912 6.95654212 -0.0245658 7.91989952 -0.02996117 C11.06052187 -0.04499179 14.20098173 -0.04566699 17.34163761 -0.04633427 C19.59024678 -0.05395358 21.83885335 -0.06238069 24.0874567 -0.07155704 C30.20100195 -0.0935289 36.31449718 -0.10230435 42.42807746 -0.10738349 C46.24535547 -0.1110233 50.0626203 -0.11726134 53.8798933 -0.12438488 C64.4494396 -0.14384106 75.01897496 -0.16035425 85.58853912 -0.16326141 C86.26472381 -0.16344898 86.94090849 -0.16363655 87.63758362 -0.16382981 C89.00835327 -0.16419606 90.37912293 -0.16455975 91.74989258 -0.16492092 C92.43033934 -0.16510373 93.1107861 -0.16528654 93.81185246 -0.16547489 C94.49312968 -0.16565544 95.1744069 -0.16583599 95.87632889 -0.16602201 C106.92084466 -0.16956533 117.96516567 -0.196599 129.00961386 -0.23397278 C140.34945625 -0.27203916 151.68917043 -0.29097749 163.02908951 -0.29172093 C169.39587676 -0.29251531 175.76241265 -0.30132861 182.12914181 -0.32971859 C188.11527205 -0.35581435 194.10094098 -0.35815175 200.08710194 -0.34206295 C202.28615604 -0.34024181 204.48523617 -0.34699873 206.68423367 -0.36288166 C209.6824794 -0.38322017 212.67909241 -0.37286205 215.67731571 -0.35466862 C216.55105019 -0.36786858 217.42478466 -0.38106855 218.32499593 -0.39466852 C222.59683967 -0.33530817 224.42846806 -0.12135544 227.96215248 2.48598289 C230.54621029 6.10045399 231.26106482 8.3299229 230.54481792 12.7093935 C230.29614153 13.57257505 230.04746513 14.43575661 229.79125309 15.32509518 C229.50907114 16.32514237 229.22688919 17.32518957 228.93615627 18.35554123 C228.45660708 19.98929718 228.45660708 19.98929718 227.96737003 21.65605831 C227.63656752 22.81588317 227.305765 23.97570803 226.96493816 25.17067909 C226.0496038 28.37148849 225.1243177 31.56910721 224.19467735 34.7657702 C223.20552684 38.17619159 222.22938037 41.59033263 221.25173283 45.00406551 C219.35963212 51.60331604 217.455889 58.19915061 215.54801035 64.79385477 C213.35413596 72.37872332 211.17154847 79.96682312 208.9899857 87.55524027 C206.14747224 97.44234319 203.30271349 107.32879393 200.45073795 117.21317196 C195.57144891 134.12476709 190.71421731 151.04221089 185.89971638 167.9723959 C184.17040251 174.05159049 182.43681592 180.12956818 180.70348263 186.20761776 C179.38713369 190.8247155 178.07316075 195.44246152 176.76455021 200.061759 C175.56068718 204.31044143 174.34942534 208.55694274 173.13229465 212.80184269 C172.69920579 214.31725654 172.26881902 215.83344598 171.84150791 217.35049915 C166.38315557 236.71825178 166.38315557 236.71825178 162.07585472 239.44249302 C159.84623772 240.29811503 158.26821145 240.51341626 155.89079475 240.52012444 C155.08821647 240.52719003 154.28563818 240.53425562 153.45873934 240.54153532 C152.58277415 240.53912023 151.70680895 240.53670515 150.80429935 240.53421688 C149.40176431 240.5420719 149.40176431 240.5420719 147.97089523 240.5500856 C144.83027289 240.56511623 141.68981302 240.56579143 138.54915714 240.5664587 C136.30054797 240.57407802 134.05194141 240.58250512 131.80333805 240.59168148 C125.6897928 240.61365334 119.57629757 240.62242879 113.46271729 240.62750793 C109.64543928 240.63114773 105.82817445 240.63738577 102.01090145 240.64450932 C91.44135515 240.6639655 80.8718198 240.68047868 70.30225563 240.68338585 C69.62607095 240.68357342 68.94988626 240.68376099 68.25321114 240.68395424 C66.88244148 240.68432049 65.51167183 240.68468419 64.14090217 240.68504535 C63.46045541 240.68522817 62.78000865 240.68541098 62.0789423 240.68559933 C61.39766507 240.68577988 60.71638785 240.68596043 60.01446586 240.68614645 C48.96995009 240.68968976 37.92562909 240.71672343 26.88118089 240.75409722 C15.5413385 240.7921636 4.20162433 240.81110193 -7.13829476 240.81184536 C-13.50508201 240.81263975 -19.8716179 240.82145304 -26.23834705 240.84984303 C-32.2244773 240.87593879 -38.21014623 240.87827618 -44.19630718 240.86218739 C-46.39536129 240.86036625 -48.59444141 240.86712316 -50.79343891 240.8830061 C-53.79168465 240.9033446 -56.78829766 240.89298649 -59.78652096 240.87479305 C-61.09712267 240.894593 -61.09712267 240.894593 -62.43420118 240.91479295 C-66.70604492 240.85543261 -68.5376733 240.64147987 -72.07135773 238.03414154 C-74.65541554 234.41967045 -75.37027007 232.19020153 -74.65402317 227.81073093 C-74.40534678 226.94754938 -74.15667038 226.08436783 -73.90045834 225.19502926 C-73.61827639 224.19498206 -73.33609444 223.19493486 -73.04536152 222.16458321 C-72.56581233 220.53082725 -72.56581233 220.53082725 -72.07657528 218.86406612 C-71.74577276 217.70424127 -71.41497025 216.54441641 -71.07414341 215.34944534 C-70.15880904 212.14863594 -69.23352294 208.95101723 -68.3038826 205.75435424 C-67.31473208 202.34393284 -66.33858562 198.92979181 -65.36093807 195.51605892 C-63.46883737 188.9168084 -61.56509425 182.32097382 -59.6572156 175.72626966 C-57.4633412 168.14140111 -55.28075372 160.55330131 -53.09919095 152.96488416 C-50.25667748 143.07778125 -47.41191873 133.19133051 -44.5599432 123.30695248 C-39.68065416 106.39535735 -34.82342256 89.47791355 -30.00892162 72.54772854 C-28.27960775 66.46853394 -26.54602117 60.39055626 -24.81268787 54.31250668 C-23.49633893 49.69540894 -22.18236599 45.07766291 -20.87375546 40.45836544 C-19.66989243 36.209683 -18.45863058 31.9631817 -17.2414999 27.71828175 C-16.80841103 26.20286789 -16.37802427 24.68667846 -15.95071316 23.16962528 C-10.49236082 3.80187265 -10.49236082 3.80187265 -6.18505996 1.07763141 C-3.95544296 0.22200941 -2.37741669 0.00670818 0 0 Z " fill="#DAC8FE" transform="translate(236.05460262298584,167.7399377822876)"/>
<path d="M0 0 C0.93894104 -0.01080597 1.87788208 -0.02161194 2.84527588 -0.03274536 C5.93908027 -0.0576968 9.02915275 -0.02477025 12.12280273 0.01123047 C14.27701513 0.01092045 16.43122865 0.0079418 18.58543396 0.00241089 C23.09570759 -0.00035586 27.60470819 0.02473524 32.11474609 0.0703125 C37.89462378 0.1271197 43.67238961 0.12159832 49.45242405 0.09613228 C53.89896169 0.08222033 58.34501141 0.09779318 62.79148674 0.12264633 C64.92251654 0.13167482 67.05359872 0.13234931 69.18463326 0.12451553 C72.1632431 0.11869076 75.13894536 0.15169178 78.1171875 0.1953125 C78.99680649 0.1863092 79.87642548 0.17730591 80.78269958 0.16802979 C86.6203032 0.31002652 86.6203032 0.31002652 89.12462425 2.29776478 C91.74590759 5.37418016 93.71750573 8.89928359 95.58764648 12.46826172 C96.13606201 13.50321777 96.68447754 14.53817383 97.24951172 15.60449219 C98.11298218 17.25602295 98.11298218 17.25602295 98.99389648 18.94091797 C100.2431852 21.29748968 101.49401426 23.65315263 102.74780273 26.00732422 C103.06290298 26.60013184 103.37800323 27.19293945 103.70265198 27.80371094 C106.67880159 33.38666812 109.79026297 38.88716097 112.93139648 44.37841797 C118.69319178 54.47073456 124.1989158 64.68969693 129.64599609 74.95410156 C130.55103882 76.65687256 130.55103882 76.65687256 131.47436523 78.39404297 C132.00956787 79.40499023 132.54477051 80.4159375 133.09619141 81.45751953 C134.51458406 84.12742069 134.51458406 84.12742069 136.49389648 87.00341797 C138.37007259 98.02595258 128.16986702 110.15684862 122.94287109 119.31494141 C118.26267377 127.54831888 113.79737478 135.88334285 109.36889648 144.25341797 C104.75381171 152.96472207 100.10269549 161.64720639 95.18139648 170.19091797 C94.74359863 170.95629883 94.30580078 171.72167969 93.85473633 172.51025391 C93.45077637 173.20280273 93.04681641 173.89535156 92.63061523 174.60888672 C92.28732178 175.19822998 91.94402832 175.78757324 91.59033203 176.39477539 C88.60388598 180.77635924 88.60388598 180.77635924 85.6210413 181.38652802 C84.9136906 181.39025673 84.20633989 181.39398544 83.47755432 181.39782715 C82.25577988 181.41485184 82.25577988 181.41485184 81.00932312 181.43222046 C79.67439568 181.42782455 79.67439568 181.42782455 78.3125 181.42333984 C76.90233612 181.43604416 76.90233612 181.43604416 75.46368408 181.44900513 C72.3499201 181.47244204 69.23664832 181.47339569 66.12280273 181.47216797 C63.96190695 181.47926549 61.80101306 181.48696388 59.64012146 181.49523926 C55.10817223 181.50869947 50.57639724 181.51024589 46.04443359 181.50439453 C40.23218159 181.49849707 34.4207645 181.52908532 28.60867405 181.56951141 C24.1451516 181.59534064 19.68183144 181.59827015 15.21824455 181.59461975 C13.0751835 181.59631548 10.93211355 181.60600125 8.78912544 181.62376404 C5.79374182 181.64585902 2.80006446 181.63629971 -0.1953125 181.61865234 C-1.0832399 181.63191559 -1.9711673 181.64517883 -2.88600159 181.65884399 C-8.90550081 181.57629366 -8.90550081 181.57629366 -11.98074341 178.64302063 C-12.48411224 177.77195175 -12.98748108 176.90088287 -13.50610352 176.00341797 C-14.07256592 175.06328857 -14.63902832 174.12315918 -15.22265625 173.15454102 C-15.78927979 172.1185376 -16.35590332 171.08253418 -16.93969727 170.01513672 C-17.25376526 169.44387558 -17.56783325 168.87261444 -17.89141846 168.28404236 C-18.91345637 166.42216859 -19.92856055 164.55661291 -20.94360352 162.69091797 C-21.65977054 161.38325223 -22.3763283 160.07580041 -23.09326172 158.76855469 C-28.02015649 149.77423019 -32.89379324 140.7510505 -37.75927734 131.72338867 C-42.15963453 123.58310585 -46.69441519 115.5222905 -51.28222656 107.48632812 C-52.70055338 104.99769712 -54.10505089 102.50179852 -55.50610352 100.00341797 C-56.43036133 98.38306641 -56.43036133 98.38306641 -57.37329102 96.72998047 C-59.11722541 92.53251079 -59.04628108 89.33533024 -57.33544922 85.11694336 C-56.51693481 83.62408813 -56.51693481 83.62408813 -55.68188477 82.10107422 C-55.0721582 80.97572266 -54.46243164 79.85037109 -53.83422852 78.69091797 C-53.16268367 77.48240112 -52.4908001 76.27407244 -51.81860352 75.06591797 C-51.12885753 73.80471498 -50.44006737 72.54298881 -49.75219727 71.28076172 C-45.07369123 62.72333696 -40.28099961 54.22887495 -35.4387207 45.76318359 C-32.39882686 40.42892474 -29.4462124 35.05734203 -26.57250977 29.63232422 C-26.23879364 29.00333221 -25.90507751 28.37434021 -25.56124878 27.72628784 C-23.93264449 24.65319006 -22.3127413 21.57592916 -20.70532227 18.49169922 C-20.11493164 17.37279297 -19.52454102 16.25388672 -18.91625977 15.10107422 C-18.40200439 14.11631104 -17.88774902 13.13154785 -17.35791016 12.11694336 C-16.74681396 11.08947998 -16.13571777 10.0620166 -15.50610352 9.00341797 C-15.12358681 8.33722096 -14.7410701 7.67102396 -14.34696198 6.98463917 C-10.3244305 0.7459295 -7.2312291 -0.15932478 0 0 Z " fill="#005AC8" transform="translate(273.506103515625,196.99658203125)"/>
<path d="M0 0 C0.80257829 -0.00706559 1.60515657 -0.01413118 2.43205541 -0.02141088 C3.30802061 -0.0189958 4.1839858 -0.01658071 5.0864954 -0.01409245 C6.02151876 -0.01932912 6.95654212 -0.0245658 7.91989952 -0.02996117 C11.06052187 -0.04499179 14.20098173 -0.04566699 17.34163761 -0.04633427 C19.59024678 -0.05395358 21.83885335 -0.06238069 24.0874567 -0.07155704 C30.20100195 -0.0935289 36.31449718 -0.10230435 42.42807746 -0.10738349 C46.24535547 -0.1110233 50.0626203 -0.11726134 53.8798933 -0.12438488 C64.4494396 -0.14384106 75.01897496 -0.16035425 85.58853912 -0.16326141 C86.26472381 -0.16344898 86.94090849 -0.16363655 87.63758362 -0.16382981 C89.00835327 -0.16419606 90.37912293 -0.16455975 91.74989258 -0.16492092 C92.43033934 -0.16510373 93.1107861 -0.16528654 93.81185246 -0.16547489 C94.49312968 -0.16565544 95.1744069 -0.16583599 95.87632889 -0.16602201 C106.92084466 -0.16956533 117.96516567 -0.196599 129.00961386 -0.23397278 C140.34945625 -0.27203916 151.68917043 -0.29097749 163.02908951 -0.29172093 C169.39587676 -0.29251531 175.76241265 -0.30132861 182.12914181 -0.32971859 C188.11527205 -0.35581435 194.10094098 -0.35815175 200.08710194 -0.34206295 C202.28615604 -0.34024181 204.48523617 -0.34699873 206.68423367 -0.36288166 C209.6824794 -0.38322017 212.67909241 -0.37286205 215.67731571 -0.35466862 C216.55105019 -0.36786858 217.42478466 -0.38106855 218.32499593 -0.39466852 C222.59683967 -0.33530817 224.42846806 -0.12135544 227.96215248 2.48598289 C230.54621029 6.10045399 231.26106482 8.3299229 230.54481792 12.7093935 C230.29614153 13.57257505 230.04746513 14.43575661 229.79125309 15.32509518 C229.50907114 16.32514237 229.22688919 17.32518957 228.93615627 18.35554123 C228.45660708 19.98929718 228.45660708 19.98929718 227.96737003 21.65605831 C227.63656752 22.81588317 227.305765 23.97570803 226.96493816 25.17067909 C226.0496038 28.37148849 225.1243177 31.56910721 224.19467735 34.7657702 C223.20552684 38.17619159 222.22938037 41.59033263 221.25173283 45.00406551 C219.35963212 51.60331604 217.455889 58.19915061 215.54801035 64.79385477 C213.35413596 72.37872332 211.17154847 79.96682312 208.9899857 87.55524027 C206.14747224 97.44234319 203.30271349 107.32879393 200.45073795 117.21317196 C195.57144891 134.12476709 190.71421731 151.04221089 185.89971638 167.9723959 C184.17040251 174.05159049 182.43681592 180.12956818 180.70348263 186.20761776 C179.38713369 190.8247155 178.07316075 195.44246152 176.76455021 200.061759 C175.56068718 204.31044143 174.34942534 208.55694274 173.13229465 212.80184269 C172.69920579 214.31725654 172.26881902 215.83344598 171.84150791 217.35049915 C166.38315557 236.71825178 166.38315557 236.71825178 162.07585472 239.44249302 C159.84623772 240.29811503 158.26821145 240.51341626 155.89079475 240.52012444 C155.08821647 240.52719003 154.28563818 240.53425562 153.45873934 240.54153532 C152.58277415 240.53912023 151.70680895 240.53670515 150.80429935 240.53421688 C149.40176431 240.5420719 149.40176431 240.5420719 147.97089523 240.5500856 C144.83027289 240.56511623 141.68981302 240.56579143 138.54915714 240.5664587 C136.30054797 240.57407802 134.05194141 240.58250512 131.80333805 240.59168148 C125.6897928 240.61365334 119.57629757 240.62242879 113.46271729 240.62750793 C109.64543928 240.63114773 105.82817445 240.63738577 102.01090145 240.64450932 C91.44135515 240.6639655 80.8718198 240.68047868 70.30225563 240.68338585 C69.62607095 240.68357342 68.94988626 240.68376099 68.25321114 240.68395424 C66.88244148 240.68432049 65.51167183 240.68468419 64.14090217 240.68504535 C63.46045541 240.68522817 62.78000865 240.68541098 62.0789423 240.68559933 C61.39766507 240.68577988 60.71638785 240.68596043 60.01446586 240.68614645 C48.96995009 240.68968976 37.92562909 240.71672343 26.88118089 240.75409722 C15.5413385 240.7921636 4.20162433 240.81110193 -7.13829476 240.81184536 C-13.50508201 240.81263975 -19.8716179 240.82145304 -26.23834705 240.84984303 C-32.2244773 240.87593879 -38.21014623 240.87827618 -44.19630718 240.86218739 C-46.39536129 240.86036625 -48.59444141 240.86712316 -50.79343891 240.8830061 C-53.79168465 240.9033446 -56.78829766 240.89298649 -59.78652096 240.87479305 C-61.09712267 240.894593 -61.09712267 240.894593 -62.43420118 240.91479295 C-66.70604492 240.85543261 -68.5376733 240.64147987 -72.07135773 238.03414154 C-74.65541554 234.41967045 -75.37027007 232.19020153 -74.65402317 227.81073093 C-74.40534678 226.94754938 -74.15667038 226.08436783 -73.90045834 225.19502926 C-73.61827639 224.19498206 -73.33609444 223.19493486 -73.04536152 222.16458321 C-72.56581233 220.53082725 -72.56581233 220.53082725 -72.07657528 218.86406612 C-71.74577276 217.70424127 -71.41497025 216.54441641 -71.07414341 215.34944534 C-70.15880904 212.14863594 -69.23352294 208.95101723 -68.3038826 205.75435424 C-67.31473208 202.34393284 -66.33858562 198.92979181 -65.36093807 195.51605892 C-63.46883737 188.9168084 -61.56509425 182.32097382 -59.6572156 175.72626966 C-57.4633412 168.14140111 -55.28075372 160.55330131 -53.09919095 152.96488416 C-50.25667748 143.07778125 -47.41191873 133.19133051 -44.5599432 123.30695248 C-39.68065416 106.39535735 -34.82342256 89.47791355 -30.00892162 72.54772854 C-28.27960775 66.46853394 -26.54602117 60.39055626 -24.81268787 54.31250668 C-23.49633893 49.69540894 -22.18236599 45.07766291 -20.87375546 40.45836544 C-19.66989243 36.209683 -18.45863058 31.9631817 -17.2414999 27.71828175 C-16.80841103 26.20286789 -16.37802427 24.68667846 -15.95071316 23.16962528 C-10.49236082 3.80187265 -10.49236082 3.80187265 -6.18505996 1.07763141 C-3.95544296 0.22200941 -2.37741669 0.00670818 0 0 Z M0.94539738 12.26006222 C-2.19147419 20.7010549 -2.19147419 20.7010549 -4.73038387 29.21318722 C-4.99730038 30.23259396 -5.26421688 31.25200069 -5.53922176 32.30229855 C-5.94902279 33.89014156 -5.94902279 33.89014156 -6.36710262 35.51006222 C-8.87884116 45.04404128 -11.58118947 54.49138092 -14.49478817 63.90972042 C-16.4739175 70.31671346 -18.35749933 76.74423065 -20.17960262 83.19756222 C-21.98014406 89.54759052 -23.80482529 95.88772118 -25.74210262 102.19756222 C-26.11721981 103.42346066 -26.492337 104.64935909 -26.87882137 105.91240597 C-28.05460262 109.26006222 -28.05460262 109.26006222 -29.57413387 111.88896847 C-31.02185618 115.18549709 -31.49744198 117.67587889 -31.98038387 121.21709347 C-32.9193859 128.0313723 -34.65433786 134.42855319 -36.65134335 141.00224972 C-37.67981195 144.38889619 -38.68017088 147.78387133 -39.68350887 151.17803097 C-39.88623409 151.86142544 -40.08895931 152.54481991 -40.29782772 153.2489233 C-42.20988348 159.72157254 -43.95893206 166.23409832 -45.67960262 172.76006222 C-48.10280484 181.91578038 -50.7509448 190.9766057 -53.55533504 200.02226925 C-58.61157318 213.91857543 -58.61157318 213.91857543 -61.05460262 228.26006222 C10.22539738 228.26006222 81.50539738 228.26006222 154.94539738 228.26006222 C156.76604047 222.79813294 158.52376152 217.42347345 160.10262394 211.90215206 C160.39365246 210.88758183 160.39365246 210.88758183 160.69056034 209.85251522 C161.10714439 208.39931866 161.52285136 206.94587042 161.93774509 205.49219036 C162.60175608 203.16587787 163.26824946 200.84028848 163.93532658 198.51485348 C165.35749746 193.55553679 166.77666769 188.59536427 168.19539738 183.63506222 C170.05248184 177.14221689 171.91116483 170.64983472 173.77352238 164.15849972 C173.99905796 163.37204823 174.22459354 162.58559673 174.45696354 161.77531338 C177.46046359 151.31064173 180.5464766 140.87634793 183.75002384 130.47084713 C185.8074604 123.77309522 187.68913027 117.04335882 189.44539738 110.26006222 C191.61542464 102.03757795 193.92281933 93.88125857 196.44539738 85.76006222 C199.2110029 76.84211407 201.70567593 67.87587308 204.09407902 58.85015011 C207.1535924 47.3455942 210.44682602 35.90974407 213.74544621 24.47197628 C213.95780918 23.73409374 214.17017216 22.9962112 214.38897038 22.23596859 C214.79122661 20.83887021 215.19468132 19.44211619 215.59948063 18.04575253 C216.54655656 15.1986818 216.54655656 15.1986818 216.94539738 12.26006222 C145.66539738 12.26006222 74.38539738 12.26006222 0.94539738 12.26006222 Z " fill="#5301F9" transform="translate(236.05460262298584,167.7399377822876)"/>
<path d="M0 0 C0.99 0.495 0.99 0.495 2 1 C-2.83246154 17.94195272 -7.68666643 34.8776717 -12.55096245 51.81050873 C-13.745416 55.96858037 -14.93911062 60.12686676 -16.13110352 64.28564453 C-17.30343784 68.37575878 -18.47765562 72.46532799 -19.65317726 76.55452728 C-20.0951476 78.09315927 -20.53646741 79.63197828 -20.97708702 81.17099762 C-21.59189479 83.31797001 -22.20912929 85.46423138 -22.8269043 87.61035156 C-23.34935982 89.43061859 -23.34935982 89.43061859 -23.88237 91.28765869 C-25.1664121 95.55275764 -26.59146057 99.77438172 -28 104 C-99.28 104 -170.56 104 -244 104 C-242.13624945 95.92374762 -240.24231424 88.16656923 -237.75 80.3125 C-235.14661644 71.94101209 -232.74633677 63.53662491 -230.5 55.0625 C-227.20355533 42.64576836 -223.67151583 30.31063951 -220 18 C-219.74943848 17.14970215 -219.49887695 16.2994043 -219.24072266 15.42333984 C-218.56478219 13.13374596 -217.87842046 10.84761091 -217.1875 8.5625 C-216.80980469 7.30566406 -216.43210938 6.04882812 -216.04296875 4.75390625 C-215 2 -215 2 -213 1 C-212.67427002 1.63687744 -212.34854004 2.27375488 -212.01293945 2.92993164 C-205.58837588 15.46192091 -199.02895554 27.8727628 -192.03198242 40.09521484 C-186.93933438 49.02321804 -182.09491311 58.07560333 -177.28759766 67.15942383 C-169.80290308 83.40613079 -169.80290308 83.40613079 -157 95 C-153.88902252 95.10932298 -150.80009192 95.15734565 -147.68847656 95.16113281 C-146.72246521 95.16609772 -145.75645386 95.17106262 -144.76116943 95.17617798 C-141.55431412 95.19082391 -138.34750831 95.19760625 -135.140625 95.203125 C-132.9158325 95.20887519 -130.69104002 95.21463294 -128.46624756 95.22039795 C-123.79552987 95.23091537 -119.12482943 95.23675294 -114.45410156 95.24023438 C-108.47073683 95.24571551 -102.48760007 95.26973242 -96.50430679 95.29820633 C-91.90606015 95.31683745 -87.3078683 95.32203861 -82.7095871 95.32357025 C-80.50399278 95.32659708 -78.29839943 95.3346266 -76.0928421 95.34775543 C-73.00475283 95.36482277 -69.91721895 95.36293363 -66.82910156 95.35644531 C-65.91874146 95.3656601 -65.00838135 95.37487488 -64.07043457 95.3843689 C-57.5743374 95.34164463 -53.26070749 94.2571585 -48.51171875 89.515625 C-45.00805373 84.97440594 -42.47559755 79.80865299 -39.8125 74.75 C-38.64920262 72.5712059 -37.48513479 70.39282299 -36.3203125 68.21484375 C-35.7521582 67.14862793 -35.18400391 66.08241211 -34.59863281 64.98388672 C-32.50198555 61.07044402 -30.35446239 57.18732649 -28.1875 53.3125 C-24.04344555 45.8850054 -19.92533484 38.44337139 -15.81680298 30.9961853 C-15.1173691 29.72839262 -14.41780895 28.4606696 -13.71810913 27.19302368 C-12.08644179 24.2368803 -10.45658417 21.27979063 -8.83007812 18.32080078 C-7.63292359 16.14848274 -6.42876571 13.98000581 -5.21679688 11.81591797 C-4.67603516 10.84412598 -4.13527344 9.87233398 -3.578125 8.87109375 C-3.1027832 8.02345459 -2.62744141 7.17581543 -2.13769531 6.30249023 C-1.09089076 4.18394652 -0.46132688 2.30829626 0 0 Z " fill="#DAC8FE" transform="translate(419,292)"/>
<path d="M0 0 C1.44901703 -0.00744736 1.44901703 -0.00744736 2.92730713 -0.01504517 C6.13416244 -0.0296911 9.34096825 -0.03647343 12.54785156 -0.04199219 C14.77264406 -0.04774238 16.99743654 -0.05350013 19.222229 -0.05926514 C23.89294669 -0.06978255 28.56364713 -0.07562013 33.234375 -0.07910156 C39.21773973 -0.08458269 45.20087649 -0.10859961 51.18416977 -0.13707352 C55.78241642 -0.15570464 60.38060826 -0.16090579 64.97888947 -0.16243744 C67.18448379 -0.16546427 69.39007714 -0.17349379 71.59563446 -0.18662262 C74.68372373 -0.20368995 77.77125761 -0.20180081 80.859375 -0.1953125 C81.76973511 -0.20452728 82.68009521 -0.21374207 83.61804199 -0.22323608 C89.47850767 -0.18469231 93.76073565 0.66387966 98.3737793 4.59863281 C102.65180247 9.69815755 105.68357153 15.27361741 108.75097656 21.16113281 C109.89881839 23.32359955 111.04860683 25.48503397 112.20019531 27.64550781 C113.0710376 29.28229492 113.0710376 29.28229492 113.95947266 30.95214844 C116.58102729 35.81768276 119.3197677 40.61376484 122.06347656 45.41113281 C127.74397432 55.37664293 133.18974949 65.45790475 138.57666016 75.58398438 C139.46732178 77.25799316 139.46732178 77.25799316 140.37597656 78.96582031 C140.93969971 80.02776611 141.50342285 81.08971191 142.08422852 82.18383789 C143.5312064 84.86925797 145.02758885 87.51845187 146.54394531 90.16503906 C148.94903517 94.46525704 149.84285478 98.31802622 150.68847656 103.16113281 C149.69847656 103.49113281 148.70847656 103.82113281 147.68847656 104.16113281 C147.5747168 105.04744385 147.46095703 105.93375488 147.34375 106.84692383 C146.69918033 110.10699583 145.79914507 112.29753056 144.20410156 115.18847656 C143.43005981 116.60507568 143.43005981 116.60507568 142.64038086 118.05029297 C142.07875244 119.05624512 141.51712402 120.06219727 140.93847656 121.09863281 C140.35428955 122.16130371 139.77010254 123.22397461 139.16821289 124.31884766 C134.78178743 132.27244402 130.29810674 140.17094055 125.79272461 148.05761719 C122.61203752 153.6566188 119.53016533 159.29897397 116.52441406 164.99316406 C115.99171654 166.00089874 115.99171654 166.00089874 115.44825745 167.0289917 C113.70313308 170.33419764 111.9671587 173.64379413 110.24389648 176.96044922 C99.66900363 197.16762379 99.66900363 197.16762379 90.68847656 200.16113281 C89.31870494 200.2571833 87.94481242 200.30023098 86.57170105 200.30830383 C85.31639839 200.31903679 85.31639839 200.31903679 84.03573608 200.32998657 C83.12087433 200.33267548 82.20601257 200.33536438 81.26342773 200.33813477 C80.29727036 200.34470596 79.33111298 200.35127716 78.3356781 200.35804749 C75.1342664 200.37777913 71.93290159 200.3894422 68.73144531 200.39941406 C67.09192115 200.40552735 67.09192115 200.40552735 65.41927528 200.41176414 C59.63523167 200.4326233 53.85121177 200.44692628 48.06713867 200.45629883 C42.09158174 200.467369 36.1163966 200.50177667 30.14097118 200.54147053 C25.54701542 200.56760626 20.95314871 200.57598793 16.35912514 200.57958031 C14.15630899 200.58445332 11.953497 200.59608755 9.7507534 200.6146183 C6.66743801 200.63894668 3.58509083 200.6380561 0.50170898 200.63110352 C-0.40708008 200.64391357 -1.31586914 200.65672363 -2.25219727 200.66992188 C-9.16063083 200.6131736 -12.81050885 198.66615543 -17.74902344 193.71972656 C-21.26024333 189.2454372 -23.73641357 184.08634127 -26.35418701 179.06066895 C-28.00414589 175.89455723 -29.67797762 172.74110271 -31.35058594 169.58691406 C-31.68740387 168.95067108 -32.0242218 168.3144281 -32.37124634 167.65890503 C-35.36866912 162.01401145 -38.50565985 156.45460713 -41.68652344 150.91113281 C-45.52236114 144.22009766 -49.23287982 137.4745102 -52.83105469 130.65332031 C-53.21805542 129.92012573 -53.60505615 129.18693115 -54.00378418 128.43151855 C-55.9294573 124.77821746 -57.84608161 121.12044565 -59.75244141 117.45703125 C-60.45302196 116.12136522 -61.15370079 114.78575073 -61.85449219 113.45019531 C-62.17472855 112.82845428 -62.4949649 112.20671326 -62.8249054 111.56613159 C-64.44033433 108.27160047 -64.44033433 108.27160047 -67.31152344 106.16113281 C-67.14854517 98.63450008 -65.61005874 92.76452908 -62.52246094 85.91113281 C-61.1074331 82.69765024 -60.16136669 79.56050583 -59.31152344 76.16113281 C-58.32152344 76.16113281 -57.33152344 76.16113281 -56.31152344 76.16113281 C-55.95550049 75.4939624 -55.59947754 74.82679199 -55.23266602 74.1394043 C-48.30059403 61.16546564 -41.31332123 48.23658975 -34.01147461 35.46582031 C-31.37179562 30.84203718 -28.78358854 26.20283479 -26.29980469 21.49316406 C-25.81664795 20.5848584 -25.33349121 19.67655273 -24.83569336 18.74072266 C-23.93670826 17.04314513 -23.04912906 15.33945088 -22.17602539 13.62841797 C-16.81377172 3.55014458 -11.28559914 0.01373576 0 0 Z M-9.78715515 12.52053833 C-10.54171745 13.8276326 -10.54171745 13.8276326 -11.31152344 15.16113281 C-11.87798584 16.10126221 -12.44444824 17.0413916 -13.02807617 18.01000977 C-13.59469971 19.04601318 -14.16132324 20.0820166 -14.74511719 21.14941406 C-15.05918518 21.7206752 -15.37325317 22.29193634 -15.69683838 22.88050842 C-16.71887629 24.74238219 -17.73398047 26.60793787 -18.74902344 28.47363281 C-19.46519046 29.78129855 -20.18174822 31.08875037 -20.89868164 32.39599609 C-25.82557641 41.39032059 -30.69921316 50.41350028 -35.56469727 59.44116211 C-39.96505446 67.58144493 -44.49983511 75.64226028 -49.08764648 83.67822266 C-50.50597331 86.16685366 -51.91047082 88.66275226 -53.31152344 91.16113281 C-53.92769531 92.24136719 -54.54386719 93.32160156 -55.17871094 94.43457031 C-56.92264533 98.63203999 -56.851701 101.82922054 -55.14086914 106.04760742 C-54.59519287 107.04284424 -54.0495166 108.03808105 -53.48730469 109.06347656 C-52.87757813 110.18882812 -52.26785156 111.31417969 -51.63964844 112.47363281 C-50.96810359 113.68214966 -50.29622002 114.89047835 -49.62402344 116.09863281 C-48.93427745 117.35983581 -48.24548729 118.62156197 -47.55761719 119.88378906 C-42.87911115 128.44121382 -38.08641954 136.93567583 -33.24414062 145.40136719 C-30.20424678 150.73562604 -27.25163233 156.10720875 -24.37792969 161.53222656 C-24.04421356 162.16121857 -23.71049744 162.79021057 -23.3666687 163.43826294 C-21.73806441 166.51136072 -20.11816122 169.58862162 -18.51074219 172.67285156 C-17.92035156 173.79175781 -17.32996094 174.91066406 -16.72167969 176.06347656 C-16.20742432 177.04823975 -15.69316895 178.03300293 -15.16333008 179.04760742 C-14.55223389 180.0750708 -13.9411377 181.10253418 -13.31152344 182.16113281 C-12.92900673 182.82732982 -12.54649002 183.49352682 -12.1523819 184.17991161 C-9.44993315 188.42486909 -9.44993315 188.42486909 -5.22991848 190.90403271 C-2.7246011 191.18809661 -0.32633768 191.22009385 2.19458008 191.16455078 C3.60299164 191.18075974 3.60299164 191.18075974 5.03985596 191.19729614 C8.13366035 191.22224758 11.22373283 191.18932103 14.31738281 191.15332031 C16.4715952 191.15363033 18.62580872 191.15660898 20.78001404 191.16213989 C25.29028766 191.16490664 29.79928826 191.13981554 34.30932617 191.09423828 C40.08920386 191.03743109 45.86696969 191.04295247 51.64700413 191.0684185 C56.09354177 191.08233045 60.53959148 191.0667576 64.98606682 191.04190445 C67.11709662 191.03287596 69.2481788 191.03220147 71.37921333 191.04003525 C74.35782318 191.04586002 77.33352543 191.012859 80.31176758 190.96923828 C81.19138657 190.97824158 82.07100555 190.98724487 82.97727966 190.996521 C87.47152625 190.93288904 87.47152625 190.93288904 91.31920433 188.866786 C93.94048767 185.79037062 95.91208581 182.26526719 97.78222656 178.69628906 C98.33064209 177.66133301 98.87905762 176.62637695 99.4440918 175.56005859 C100.01973877 174.45903809 100.59538574 173.35801758 101.18847656 172.22363281 C102.43776528 169.8670611 103.68859433 167.51139815 104.94238281 165.15722656 C105.41503319 164.26801514 105.41503319 164.26801514 105.89723206 163.36083984 C108.87338597 157.7778746 111.98505041 152.27751464 115.12597656 146.78613281 C120.18271688 137.92171495 125.06514134 128.9730336 129.87597656 119.97363281 C130.36866531 119.0523056 130.36866531 119.0523056 130.87130737 118.11236572 C132.81928581 114.46664505 134.7654533 110.82008345 136.68847656 107.16113281 C137.27689331 106.21113403 137.27689331 106.21113403 137.87719727 105.24194336 C139.54145573 100.97336832 139.13878721 97.25830238 137.42602539 93.08520508 C136.83845459 92.05967529 136.25088379 91.03414551 135.64550781 89.97753906 C135.16591614 89.1248922 135.16591614 89.1248922 134.67663574 88.25502014 C133.63143691 86.40327621 132.56630722 84.56385483 131.50097656 82.72363281 C130.7645523 81.42622382 130.02979014 80.12787009 129.29663086 78.82861328 C127.80859658 76.19289397 126.31474199 73.56060692 124.81738281 70.93017578 C121.79168559 65.59575917 118.89779886 60.1912836 116.00097656 54.78613281 C111.64090374 46.7002906 107.20280567 38.66190905 102.68847656 30.66113281 C102.16036377 29.72350098 101.63225098 28.78586914 101.08813477 27.81982422 C96.14009199 18.4472071 96.14009199 18.4472071 89.68847656 10.16113281 C86.63670866 9.94639011 83.67465547 9.85700811 80.62060547 9.85473633 C79.68064224 9.84641281 78.74067902 9.83808929 77.77223206 9.82951355 C74.65312606 9.80534293 71.53422889 9.79663279 68.41503906 9.79003906 C66.2527154 9.78107807 64.0903924 9.77195634 61.92807007 9.76268005 C57.3901824 9.74616826 52.8523687 9.73848596 48.31445312 9.7355957 C42.49436107 9.73020983 36.67496242 9.69253025 30.8550663 9.64685154 C26.38727265 9.61713567 21.91964705 9.60987333 17.45176315 9.60886955 C15.30590006 9.60465633 13.16003695 9.59217819 11.01427078 9.57135201 C8.01403831 9.5445516 5.01542701 9.54922947 2.01513672 9.56176758 C1.12563828 9.54693329 0.23613983 9.532099 -0.68031311 9.51681519 C-5.76967528 9.54091023 -5.76967528 9.54091023 -9.78715515 12.52053833 Z " fill="#A8CEFD" transform="translate(271.3115234375,187.8388671875)"/>
</svg>
